PathFileType	3	(X/Y/Z)	RCH0000002 BBF 07.c3d
DataRate	CameraRate	NumFrames	NumMarkers	Units	OrigDataRate	OrigDataStartFrame	OrigNumFrames
100.0	100.0	6	23	mm	100.0	210	452
Frame#	Time	T2			T10			MAN			LASI			RASI			RPSI			LPAT			LKNE			LANK			LMED			LHEE			LTOE			RPAT			RKNE			RANK			RMED			RHEE			RTOE			LPSI			RTHI			LTHI			RTIB			LTIB			
		X1	Y1	Z1	X2	Y2	Z2	X3	Y3	Z3	X4	Y4	Z4	X5	Y5	Z5	X6	Y6	Z6	X7	Y7	Z7	X8	Y8	Z8	X9	Y9	Z9	X10	Y10	Z10	X11	Y11	Z11	X12	Y12	Z12	X13	Y13	Z13	X14	Y14	Z14	X15	Y15	Z15	X16	Y16	Z16	X17	Y17	Z17	X18	Y18	Z18	X19	Y19	Z19	X20	Y20	Z20	X21	Y21	Z21	X22	Y22	Z22	X23	Y23	Z23	

210	2.090	-676.14653	-56.05628	978.50501	-674.27158	-66.17248	788.70727	-545.13916	-46.40709	942.56098	-562.47957	-24.43568	630.45837	-591.80990	-195.79075	668.22983	-689.71877	-112.87523	706.27661	-458.38363	-79.70265	411.47829	-481.65236	-17.60971	360.26747	-520.03256	14.97807	96.26775	-519.35522	-56.52629	101.43005	-561.41527	-26.86824	118.58660	-472.59902	-21.81902	89.15621	-677.24448	-143.39538	376.80300	-730.45320	-197.18236	359.39311	-827.26324	-183.53370	96.75458	-837.68862	-117.98839	115.97243	-867.50619	-159.71068	140.46217	-789.08610	-141.71707	76.75698	-680.63566	-44.44080	686.70001	-676.02437	-266.68922	457.04488	-530.73959	56.46300	472.66598	-779.28630	-258.48232	243.53320	-493.00158	57.94646	257.56018	
211	2.100	-664.94122	-54.34765	975.57183	-662.10668	-65.91527	786.06512	-533.80653	-45.02900	940.03211	-549.66400	-25.21957	628.16808	-580.14819	-196.49318	665.93579	-677.52123	-112.77938	703.96197	-447.75245	-83.14123	408.41531	-469.38539	-19.94800	357.39408	-502.46856	14.41739	92.18715	-503.35211	-57.14645	97.36027	-545.23881	-26.80727	113.71222	-455.49692	-23.13218	86.11407	-667.89189	-143.87032	374.51938	-721.58806	-197.33002	358.13204	-824.32326	-184.15871	97.51724	-834.25150	-118.66230	117.09111	-863.38545	-160.36789	142.34458	-786.86703	-142.17860	76.37376	-668.03409	-44.27478	684.37705	-666.56019	-266.95582	455.37902	-517.23101	54.30189	470.15984	-772.99484	-258.82390	243.35052	-477.41530	56.22418	254.32243	
212	2.110	-653.66825	-52.60438	972.68781	-649.55263	-65.95088	783.54468	-522.38421	-43.56157	937.74695	-536.73582	-25.85612	626.14499	-567.93688	-197.13955	663.50439	-664.92025	-112.98155	701.74332	-437.53482	-86.06749	404.95362	-457.95657	-21.91086	354.23891	-487.97893	13.77473	88.33624	-490.14596	-57.81100	93.62811	-531.77151	-26.91654	109.37884	-441.37129	-24.38489	83.09109	-657.53898	-144.26859	372.00584	-711.71710	-197.36896	356.58724	-820.63771	-184.89377	98.35245	-830.12191	-119.45634	118.28757	-858.37748	-161.18793	144.37511	-784.16602	-142.67872	75.92830	-655.18881	-44.34900	682.35075	-656.25864	-267.14352	453.50076	-504.22504	52.44254	467.54795	-765.62605	-259.15343	243.07168	-463.77667	54.66978	250.98461	
213	2.120	-642.33224	-50.88912	969.92111	-636.65602	-66.31189	781.21005	-510.88244	-42.04399	935.74679	-523.77801	-26.31495	624.46550	-555.22230	-197.70578	660.95254	-651.98264	-113.51017	699.66412	-427.71204	-88.28104	401.26874	-447.38815	-23.33778	350.95493	-476.53544	13.21374	84.78915	-479.69353	-58.36219	90.32915	-520.98860	-27.03964	105.67069	-430.17651	-25.41723	80.17684	-646.14974	-144.54311	369.25867	-700.81146	-197.25570	354.73967	-816.14524	-185.67488	99.27832	-825.22321	-120.29903	119.56328	-852.39711	-162.08336	146.55428	-780.93611	-143.17706	75.44233	-642.18267	-44.69410	680.68603	-645.11038	-267.21560	451.39851	-491.83271	51.02758	464.95262	-757.14713	-259.41310	242.68665	-452.10501	53.45766	247.65097	
214	2.130	-630.94149	-49.27202	967.34289	-623.47901	-67.01814	779.12568	-499.31667	-40.52186	934.06875	-510.88289	-26.56474	623.19921	-542.06745	-198.16069	658.30750	-638.78782	-114.38168	697.77099	-418.29681	-89.60334	397.54524	-437.71439	-24.08295	347.70694	-467.94489	12.90196	81.61121	-471.81956	-58.63875	87.54145	-512.72787	-26.99883	102.64279	-421.72619	-26.08217	77.45799	-633.71397	-144.64905	366.28981	-688.86510	-196.95203	352.58769	-810.79811	-186.43668	100.32163	-819.49118	-121.11556	120.92530	-845.37853	-162.96225	148.88340	-777.13073	-143.63649	74.95418	-629.10771	-45.33231	679.44457	-633.12164	-267.13633	449.07674	-480.17555	50.18888	462.50520	-747.55183	-259.54695	242.19799	-442.33269	52.75595	244.42827	
215	2.140	-619.50800	-47.82777	965.02621	-610.09698	-68.07439	777.35453	-487.70752	-39.04455	932.74614	-498.14504	-26.57584	622.40450	-528.54998	-198.46854	655.60942	-625.42366	-115.59532	696.11161	-409.33176	-89.90001	393.96101	-428.97465	-24.03302	344.65730	-461.87348	12.98681	78.85355	-466.23756	-58.49862	85.31953	-506.71025	-26.62057	100.31770	-415.71474	-26.26557	75.01032	-620.24596	-144.54928	363.13100	-675.89303	-196.42962	350.15123	-804.56132	-187.12087	101.51915	-812.87493	-121.83683	122.38888	-837.27842	-163.73862	151.36706	-772.69904	-144.02930	74.51993	-616.05879	-46.27186	678.67984	-620.31378	-266.87479	446.56099	-469.36747	50.03160	460.33559	-736.85647	-259.50800	241.62468	-434.31274	52.70470	241.41651	
